<?xml version="1.0" standalone="no"?>
<!DOCTYPE svg PUBLIC "-//W3C//DTD SVG 20010904//EN"
 "http://www.w3.org/TR/2001/REC-SVG-20010904/DTD/svg10.dtd">
<svg version="1.0" xmlns="http://www.w3.org/2000/svg"
 width="512.000000pt" height="512.000000pt" viewBox="0 0 512.000000 512.000000"
 preserveAspectRatio="xMidYMid meet">

<g transform="translate(0.000000,512.000000) scale(0.100000,-0.100000)"
fill="#000000" stroke="none">
<path d="M2330 5110 c-481 -43 -952 -231 -1350 -538 -109 -84 -348 -323 -432
-432 -213 -276 -366 -580 -453 -897 -217 -791 -54 -1606 453 -2263 84 -109
323 -348 432 -432 343 -264 731 -437 1140 -508 718 -125 1432 55 2020 508 109
84 348 323 432 432 213 276 366 580 453 897 217 790 54 1606 -453 2263 -84
109 -323 348 -432 432 -526 406 -1165 595 -1810 538z m468 -271 c680 -73 1290
-444 1672 -1016 386 -577 484 -1320 263 -1987 -108 -326 -287 -617 -533 -870
-196 -201 -382 -337 -629 -460 -638 -316 -1384 -316 -2022 0 -247 123 -433
259 -629 460 -185 190 -296 347 -414 585 -316 636 -315 1382 1 2021 227 458
584 815 1042 1042 232 114 507 196 756 224 114 13 379 14 493 1z"/>
<path d="M2370 3858 c-19 -13 -44 -43 -56 -68 -72 -148 -896 -2076 -896 -2096
0 -14 5 -31 11 -37 16 -16 385 -22 438 -8 61 17 86 53 153 226 35 88 71 172
81 186 39 55 67 59 447 59 206 0 362 -4 384 -10 53 -15 79 -52 138 -202 81
-204 92 -222 144 -247 42 -21 56 -22 255 -19 226 3 235 5 233 55 -1 27 -886
2072 -917 2120 -36 54 -67 63 -231 63 -140 0 -153 -2 -184 -22z m309 -971
c127 -320 129 -332 62 -350 -19 -5 -119 -7 -221 -5 -200 3 -220 8 -220 54 0
25 205 560 223 582 26 33 43 3 156 -281z"/>
</g>
</svg>
